# Blender v2.79 (sub 0) OBJ File: 'cross.blend'
# www.blender.org
mtllib cross.mtl
o Cube.001_Cube.002
v 1.415000 0.007776 -1.146341
v -1.080043 0.007776 1.348702
v 1.415000 0.399223 -1.146341
v -1.080043 0.399223 1.348702
v 1.138204 0.007776 -1.423136
v -1.356838 0.007776 1.071907
v 1.138204 0.399223 -1.423136
v -1.356838 0.399223 1.071907
v 1.094668 0.007776 1.392239
v -1.400376 0.007776 -1.102804
v 1.094668 0.399223 1.392239
v -1.400376 0.399223 -1.102804
v 1.371463 0.007776 1.115444
v -1.123581 0.007776 -1.379599
v 1.371463 0.399223 1.115444
v -1.123581 0.399223 -1.379599
vn 0.7071 0.0000 0.7071
vn 0.0000 1.0000 -0.0000
vn -0.7071 0.0000 -0.7071
vn -0.0000 -1.0000 0.0000
vn 0.7071 0.0000 -0.7071
vn -0.7071 0.0000 0.7071
usemtl None
s off
f 1//1 3//1 4//1 2//1
f 3//2 7//2 8//2 4//2
f 7//3 5//3 6//3 8//3
f 5//4 1//4 2//4 6//4
f 3//5 1//5 5//5 7//5
f 8//6 6//6 2//6 4//6
f 9//6 11//6 12//6 10//6
f 11//2 15//2 16//2 12//2
f 15//5 13//5 14//5 16//5
f 13//4 9//4 10//4 14//4
f 11//1 9//1 13//1 15//1
f 16//3 14//3 10//3 12//3
